<svg width="16" height="16" viewBox="0 0 16 16" fill="none" xmlns="http://www.w3.org/2000/svg">
<circle cx="8" cy="8" r="8" fill="#FB2C36"/>
<path d="M12 7C12 6.5205 11.66 6.1195 11.2095 6.023C11.3895 5.7225 11.5 5.375 11.5 5C11.5 3.897 10.603 3 9.5 3C8.742 3 8.089 3.4285 7.75 4.052C7.411 3.4285 6.758 3 6 3C4.897 3 4 3.897 4 5C4 5.451 4.156 5.863 4.4085 6.198C4.28226 6.29026 4.17951 6.41093 4.10855 6.55025C4.03758 6.68958 4.0004 6.84364 4 7V11C4 11.5515 4.4485 12 5 12H11C11.5515 12 12 11.5515 12 11V9.6815L14 10.6815V7.1815L12 8.1815V7ZM9.5 4C10.0515 4 10.5 4.4485 10.5 5C10.5 5.5515 10.0515 6 9.5 6C8.9485 6 8.5 5.5515 8.5 5C8.5 4.4485 8.9485 4 9.5 4ZM6 4C6.5515 4 7 4.4485 7 5C7 5.5515 6.5515 6 6 6C5.4485 6 5 5.5515 5 5C5 4.4485 5.4485 4 6 4Z" fill="white"/>
</svg>
